<svg xmlns="http://www.w3.org/2000/svg" viewBox="0 0 1440 320"><path fill="#4ad5ff" fill-opacity="1" d="M0,192L34.3,176C68.6,160,137,128,206,101.3C274.3,75,343,53,411,53.3C480,53,549,75,617,74.7C685.7,75,754,53,823,74.7C891.4,96,960,160,1029,165.3C1097.1,171,1166,117,1234,85.3C1302.9,53,1371,43,1406,37.3L1440,32L1440,320L1405.7,320C1371.4,320,1303,320,1234,320C1165.7,320,1097,320,1029,320C960,320,891,320,823,320C754.3,320,686,320,617,320C548.6,320,480,320,411,320C342.9,320,274,320,206,320C137.1,320,69,320,34,320L0,320Z"></path></svg>